<?xml version="1.0" standalone="no"?>
<!DOCTYPE svg PUBLIC "-//W3C//DTD SVG 20010904//EN"
 "http://www.w3.org/TR/2001/REC-SVG-20010904/DTD/svg10.dtd">
<svg version="1.0" xmlns="http://www.w3.org/2000/svg"
 width="1024.000000pt" height="1024.000000pt" viewBox="0 0 1024.000000 1024.000000"
 preserveAspectRatio="xMidYMid meet">
<metadata>
Created by potrace 1.11, written by Peter Selinger 2001-2013
</metadata>
<g transform="translate(0.000000,1024.000000) scale(0.100000,-0.100000)"
fill="#000000" stroke="none">
<path d="M0 5120 l0 -5120 5120 0 5120 0 0 5120 0 5120 -5120 0 -5120 0 0
-5120z m5630 3577 c486 -64 839 -186 1173 -406 599 -395 977 -1018 1056 -1743
16 -142 13 -443 -4 -588 -33 -269 -107 -516 -229 -765 -235 -480 -626 -879
-1094 -1119 -62 -31 -112 -59 -112 -61 0 -2 393 -552 873 -1222 480 -670 881
-1230 891 -1245 l18 -28 -2956 0 -2956 0 0 3600 0 3601 1603 -4 c1459 -2 1614
-4 1737 -20z"/>
<path d="M3697 7816 c26 -46 2180 -3046 2186 -3046 5 0 54 18 111 40 306 120
598 375 777 678 221 374 269 859 128 1285 -166 502 -555 858 -1074 983 -267
63 -463 74 -1408 74 -620 0 -727 -2 -720 -14z"/>
<path d="M3180 5860 l0 -1160 831 0 c538 0 829 3 827 10 -4 13 -1649 2310
-1654 2310 -2 0 -4 -522 -4 -1160z"/>
<path d="M3185 3798 c-3 -7 -4 -321 -3 -698 l3 -685 1648 -3 c906 -1 1647 0
1647 2 0 3 -224 317 -499 698 l-498 693 -1147 3 c-912 2 -1148 0 -1151 -10z"/>
</g>
</svg>
