<?xml version="1.0" standalone="no"?>
<!DOCTYPE svg PUBLIC "-//W3C//DTD SVG 20010904//EN"
 "http://www.w3.org/TR/2001/REC-SVG-20010904/DTD/svg10.dtd">
<svg version="1.0" xmlns="http://www.w3.org/2000/svg"
 width="1024.000000pt" height="1024.000000pt" viewBox="0 0 1024.000000 1024.000000"
 preserveAspectRatio="xMidYMid meet">
<metadata>
Created by potrace 1.11, written by Peter Selinger 2001-2013
</metadata>
<g transform="translate(0.000000,1024.000000) scale(0.100000,-0.100000)"
fill="#000000" stroke="none">
<path d="M4800 10234 c-19 -2 -91 -9 -160 -14 -732 -62 -1498 -312 -2140 -698
-844 -507 -1518 -1232 -1956 -2102 -286 -569 -452 -1138 -524 -1805 -18 -162
-24 -662 -11 -847 92 -1255 605 -2381 1486 -3263 772 -774 1746 -1273 2815
-1444 291 -47 410 -55 795 -56 379 0 484 6 760 46 1090 158 2092 664 2880
1454 497 497 875 1071 1133 1716 180 450 286 884 342 1404 18 162 24 662 11
847 -66 894 -347 1724 -836 2468 -741 1126 -1931 1934 -3240 2199 -362 73
-554 92 -970 96 -192 2 -366 1 -385 -1z m1284 -2445 l42 -10 459 -1442 c252
-793 491 -1543 531 -1667 40 -124 102 -319 139 -435 37 -115 165 -518 285
-895 331 -1038 302 -943 283 -958 -13 -9 -172 -12 -713 -12 -639 0 -698 1
-720 17 -56 38 -74 76 -126 258 -165 577 -173 599 -231 645 -15 12 -40 24 -55
27 -16 3 -28 12 -28 19 0 12 -91 14 -555 14 l-556 0 -24 26 c-35 38 -32 86 14
256 150 553 204 745 213 763 14 27 58 74 83 88 13 8 98 14 230 17 166 5 216 9
240 22 50 27 68 54 73 111 3 45 -16 121 -133 532 -76 264 -146 507 -155 540
-9 33 -139 489 -289 1012 -282 984 -283 989 -248 1037 31 43 63 45 645 46 360
0 568 -4 596 -11z m-1475 -1084 c160 -556 291 -1019 291 -1029 0 -10 -206
-758 -457 -1662 l-456 -1644 -678 0 -677 0 -26 31 c-18 20 -26 42 -26 67 0 20
88 313 196 652 108 338 229 719 269 845 117 368 334 1052 500 1570 186 584
536 1683 615 1932 32 100 66 197 77 215 23 39 64 64 74 45 4 -7 138 -467 298
-1022z"/>
</g>
</svg>
