<?xml version="1.0" encoding="utf-8"?>
<!-- Generator: Adobe Illustrator 22.1.0, SVG Export Plug-In . SVG Version: 6.00 Build 0)  -->
<svg version="1.1" id="Layer_1" xmlns="http://www.w3.org/2000/svg" xmlns:xlink="http://www.w3.org/1999/xlink" x="0px" y="0px"
	 viewBox="0 0 841.9 595.3" style="enable-background:new 0 0 841.9 595.3;" xml:space="preserve">
<path d="M321.6,282.6l-7.5-39c0-0.7-1-1.4-1.7-1.4h-54.6c-0.7,0-1.7,0.7-1.7,1.4l-7.8,39c-0.3,2-1.7,3.1-3.7,3.1h-25.8
	c-2.4,0-3.4-1.7-3-3.7l50.5-230.5c0.3-2,1.7-3.1,3.7-3.1h29.8c2,0,3.4,1,3.7,3.1L354.8,282c0.3,2-0.7,3.7-3,3.7h-26.4
	C323.3,285.7,322,284.7,321.6,282.6z M263,216.6h44.7c0.7,0,1-0.7,1-1.4L286.4,99.3c-0.3-1.4-1-1.4-1.4,0l-23,115.9
	C262,215.9,262.3,216.6,263,216.6z"/>
<path d="M617.2,533.2l-31.5-101.7c-0.3-1-0.7-1-1.4-1h-23.4c-0.7,0-1.4,0.7-1.4,1.4v100.7c0,2-1.4,3.4-3.4,3.4h-25.8
	c-2,0-3.4-1.4-3.4-3.4V301.7c0-2,1.4-3.4,3.4-3.4h60.7c34.9,0,58.3,27.4,58.3,67.4c0,28.8-12.9,50.8-33.2,59.6c-0.7,0.7-1,1-0.7,2
	l34.9,104.7c0.7,2.4-0.3,3.7-2.7,3.7h-26.4C619.6,535.9,617.9,534.9,617.2,533.2z M559.6,327.8v75.9c0,0.7,0.7,1.4,1.4,1.4H586
	c18.3,0,30.8-15.3,30.8-39c0-24.4-12.5-39.7-30.8-39.7h-25.1C560.3,326.4,559.6,327.1,559.6,327.8z"/>
<polygon points="163.8,285.6 163.8,24 425.4,24 437.4,12 151.7,12 151.7,297.6 "/>
<polygon points="702,298.3 702,562.2 438.1,562.2 426.1,574.3 714,574.3 714,286.3 "/>
<polygon points="600.9,124.1 592.4,132.6 281.5,443.5 273,452 281.5,460.5 609.4,132.6 "/>
</svg>
