<?xml version="1.0" encoding="utf-8"?>
<!-- Generator: Adobe Illustrator 22.1.0, SVG Export Plug-In . SVG Version: 6.00 Build 0)  -->
<svg version="1.1" id="Layer_1" xmlns="http://www.w3.org/2000/svg" xmlns:xlink="http://www.w3.org/1999/xlink" x="0px" y="0px"
	 viewBox="0 0 841.9 595.3" style="enable-background:new 0 0 841.9 595.3;" xml:space="preserve">
<g>
	<path d="M244.1,245.4c0.6,0,1.2,0.1,1.7,0.4c0.5,0.2,1,0.6,1.3,1.1c0.3,0.5,0.5,1,0.5,1.6c0.1,0.8-0.1,1.6-0.7,2.3
		c-0.6,0.7-1.4,1-2.4,1c-8.6,0.6-19.1,1.7-31.6,3.3c-14.8,39.5-23.6,67.1-26.5,82.9c-0.2,0.8-0.7,1.5-1.5,2
		c-0.7,0.5-1.5,0.6-2.4,0.5c-0.8-0.2-1.5-0.6-2.1-1.4c-0.5-0.7-0.7-1.5-0.5-2.4c2.8-15.4,11.4-42.2,25.7-80.7
		c-16.2,2.1-32.9,4.8-50.2,8.2c-7,9.1-15.8,20.7-26.5,34.8c10.2,16.7-8.1,40.5-54.8,71.4c-0.7,0.5-1.5,0.6-2.4,0.5
		c-0.9-0.2-1.6-0.6-2.1-1.4c-0.8-1.3-0.8-2.6,0.2-3.8c8.9-11.1,25.3-32.5,49.1-64c-2.9-4.6-8.4-8.3-16.4-11.1
		c-8-2.8-14.5-4.5-19.3-5.1c-4.8-0.6-8.2-0.9-10-0.9c-1.5,0-2.4-0.7-2.9-2.2c-0.2-0.8-0.2-1.7,0.2-2.4c0.4-0.8,1-1.3,1.8-1.5
		c21.2-7.4,47.7-14.1,79.6-20.1c33.4-43.9,61.3-77.5,83.8-101c3.7-4,6.8-4.9,9.1-2.7c3,2.9-4.2,27.1-21.6,72.7
		c-1,2.7-2.4,6.5-4.3,11.4c-1.9,5-3.1,8.1-3.5,9.4C225.7,246.9,235.2,246,244.1,245.4z M88.7,352.2c23.1-17.5,34.1-32,33-43.3
		C109.4,325.4,98.4,339.8,88.7,352.2z M125,293.8c2.1-2.7,5.4-7.1,10.2-13.4c4.7-6.3,8.3-11.1,10.9-14.5c-21,4.2-40.1,8.9-57.1,14
		C105.8,282.7,117.9,287.4,125,293.8z M208.2,249c1.1-2.8,2.7-6.9,4.8-12.3c2.1-5.4,3.6-9.4,4.4-11.8c14.1-37,21.8-58,22.8-62.9
		c-20.8,21.8-47,53.2-78.7,94.3C176.8,253.6,192.4,251.2,208.2,249z M240.7,159l-0.2,0.4l0.2,0.7C240.7,159.5,240.7,159.2,240.7,159
		z"/>
	<path d="M313.2,247.2c0.4,0.7,0.4,1.5,0.2,2.4c-0.2,0.9-0.8,1.5-1.6,1.9c-16,8-27.7,12.8-35.2,14.3c-14.3,3-17.6-2.1-10-15.2
		l0.2-0.2c-0.6,0-1.4,0.1-2.4,0.4c-7.7,1.7-17.3,6.6-28.6,14.9c-0.6,0.5-1.3,0.7-2.1,0.7c-0.8,0-1.5-0.2-2.1-0.7
		c-0.6-0.5-1-1.2-1.1-2.1c-0.1-0.9,0.1-1.7,0.7-2.4c2.8-3.4,6.2-7.3,10.3-11.8c0.5-0.5,1-1.1,1.6-1.7c0.6-0.7,1.1-1.3,1.6-1.8
		c0.5-0.5,1.1-1.2,1.8-2c0.7-0.8,1.4-1.5,2-2.3c1.5-1.6,3-1.6,4.5-0.2c0.7,0.6,1.1,1.3,1.2,2.2c0.1,0.8-0.2,1.6-0.8,2.4l-3.1,3.4
		c5-2.4,9.2-4,12.7-4.9c2.3-0.6,4.3-0.7,6-0.4c2.7,0.5,4.2,1.9,4.5,4.3c0.2,1.6-0.2,3.4-1.3,5.4c-1.5,2.5-1.9,4.2-1.4,5.1
		c0.5,0.8,2,1,4.3,0.5c7-1.6,18.2-6.2,33.5-13.8c0.8-0.5,1.7-0.6,2.5-0.3C312.2,245.8,312.8,246.3,313.2,247.2z"/>
	<path d="M390.4,176.8c3.5,2.9,4.4,8.2,2.7,15.8c-1.1,5.2-3.2,10.7-6.4,16.4c-3.2,5.7-8.1,12.1-14.6,19.2
		c-6.5,7.1-14.1,13.4-22.8,19.1c-3,9.4-6.1,19.6-9.2,30.6c-0.1,0.6-0.4,1.1-0.8,1.5c-0.4,0.4-0.9,0.7-1.4,0.8c-0.5,0.1-1,0.1-1.6,0
		c-0.8-0.2-1.5-0.8-2-1.5c-0.5-0.8-0.5-1.6-0.2-2.4c1.8-7.1,4.1-15.1,6.9-23.9l-1.6,0.7c-2.4,1.2-5.9,2.6-10.5,4.2
		c-13.7,4.6-22.8,6.5-27.6,5.8c-5.7-0.8-7.2-3.5-4.5-8c1.5-2.2,4.1-4.4,8-6.7c3.4-2.1,7.2-3.7,11.3-5c4.2-1.3,8.6-2,13.4-2.2
		c4.8-0.2,9,0.8,12.6,2.8l0.4,0.2l1.6-1.1c10.5-30.9,20.9-51.6,31.2-62C381.4,175,386.5,173.6,390.4,176.8z M326.8,251.2
		c2.8-1,5.4-1.9,7.8-2.9c-4.1-1-8.6-0.8-13.5,0.5c-4.9,1.3-9.3,3.1-13.1,5.3c-1.6,0.8-2.9,1.8-4,2.7
		C308.2,256.7,315.8,254.8,326.8,251.2z M386.8,191.3c1.1-5.2,0.9-8.3-0.5-9.4c-1-1-3.1,0.3-6.5,3.8c-8.7,8.7-17.6,25.8-26.7,51.1
		c9.8-7.4,17.5-15.1,23.1-23.3C381.8,205.4,385.4,198,386.8,191.3z"/>
	<path d="M398.4,243.4c0.7,1.9,0.4,4.2-0.9,6.7c-1,1.8-2.4,2.3-4.4,1.5c-0.7-0.4-1.2-1-1.5-1.9c-0.3-0.9-0.3-1.7,0.1-2.4
		c0.1-0.1,0.2-0.3,0.4-0.5l0.2-0.4c-1-0.1-2.2,0-3.6,0.4c-3.6,1-7.7,3-12.1,6.1c-4.5,3.1-8.6,7-12.3,11.7c-0.8,1.1-1.7,1.9-2.5,2.4
		c-4,1.7-5.6,0.3-4.9-4.2c0.1-1.1,0.4-2.2,0.9-3.3c2.8-7.6,5.9-13.8,9.4-18.5c0.5-0.7,1.2-1.1,2.1-1.3c0.9-0.1,1.7,0.1,2.4,0.5
		c0.7,0.6,1.1,1.3,1.3,2.2c0.1,0.8-0.1,1.6-0.5,2.4c-0.8,1.1-2.1,3-3.6,5.8c6.4-5.2,12.5-8.6,18.3-10.2c2.3-0.6,4.4-0.8,6.3-0.5
		C395.8,240.2,397.5,241.4,398.4,243.4z"/>
	<path d="M474.8,247.5c0.1,0.6,0.1,1.2,0,1.7c-0.1,0.5-0.4,1-0.8,1.5c-0.4,0.4-0.9,0.7-1.4,0.8c-30.7,9.4-51.9,12.9-63.5,10.5
		c-4.1-0.8-6.7-2.6-7.8-5.3c-1-2.8-0.1-5.4,2.7-8c1.9-1.9,4.8-3.6,8.7-4.9c3.9-1.3,8.2-2.1,12.9-2.4c4-0.1,6.8,0.4,8.5,1.5
		c3,2.2,3.1,4.5,0.2,7.1c-1.1,1.2-2.8,2.2-5.3,2.9c-2.3,1.1-5.2,1.5-8.8,1.4c-3.6-0.2-6.5-1.1-8.8-2.8c-1.3,0.6-2.4,1.3-3.1,2
		c-0.6,0.6-0.9,1-0.9,1.1c0.1,0.2,1.1,0.6,2.9,1.1c10.6,2.1,30.7-1.4,60.2-10.3c0.5-0.1,0.9-0.2,1.4-0.1c0.4,0.1,0.8,0.2,1.2,0.4
		c0.4,0.2,0.7,0.4,1,0.7C474.4,246.7,474.6,247.1,474.8,247.5z"/>
	<path d="M516.6,245.4c0.6,0,1.1,0.1,1.6,0.3c0.5,0.2,0.9,0.5,1.3,0.9c0.4,0.4,0.6,0.9,0.7,1.4c0.1,0.6,0.1,1.2-0.1,1.8
		c-0.2,0.6-0.5,1.1-0.9,1.5c-0.4,0.4-0.9,0.6-1.5,0.7c-12.6,2.2-22.7,4.3-30.5,6.3c2.5,4.5,1.3,8.6-3.8,12.3c-3,2.4-6.8,4-11.4,4.9
		c-4.6,0.8-8.7,1-12.3,0.4c-4-0.7-6.5-2.3-7.6-4.7c-1.3-3,0.1-5.9,4.4-8.7c3.6-2.5,9.9-5.1,18.9-7.8c-2.1-1.8-3.5-3.3-4.4-4.5
		c-2.8-3.9-2.2-7.2,1.8-10c3.7-2.7,8.8-4,15.2-4c1.8-0.1,3.4,0.1,4.9,0.5c2.3,0.7,3.7,1.9,4.4,3.6c0.4,1.1,0.3,2.2-0.2,3.3
		c-0.2,0.8-0.8,1.5-1.6,1.9c-0.8,0.4-1.7,0.5-2.5,0.1c-1.3-0.5-2-1.4-2-2.7c-0.8-0.2-1.8-0.3-2.9-0.2c-4.8,0-8.7,0.9-11.6,2.7
		c-0.4,0.4-0.4,0.7-0.2,1.1c0.7,1.1,2.1,2.4,4.2,4c0.5,0.5,1.3,1.2,2.4,2.2C492.3,250.1,503.6,247.7,516.6,245.4z M479.6,265.5
		c2.3-1.7,2.7-3.5,1.1-5.4v-0.2c-10.2,2.8-17,5.4-20.7,8c-0.4,0.1-0.7,0.2-1.1,0.4c-0.4,0.1-0.6,0.2-0.8,0.2c-0.2,0-0.2,0.1-0.1,0.2
		c0.1,0.2,1,0.5,2.7,0.7c2.9,0.6,6.2,0.6,9.8-0.1C474.2,268.5,477.2,267.3,479.6,265.5z"/>
	<path d="M776.6,346.2c0.9,0.1,1.4,0.2,1.4,0.2s0.3,0.4,0.8,1.1s0.8,1.5,0.6,2.4c-0.1,0.8-0.5,1.6-1.3,2.2
		c-26.2,19.8-53.4,21.8-81.6,6c-14.4-8-31.7-22.6-51.9-43.9c-2.9-3-7.1-7.5-12.7-13.4c-8.5-9.2-14.8-15.8-19-19.9
		c-8.1-1-16.1-3-24.1-6.2c-0.1,0-0.5-0.1-1.1-0.4c-1.4-0.6-2.5-1.1-3.3-1.5c-16.7,24.7-32.6,50.6-47.9,77.8l-0.2,0.4
		c-0.5,0.7-1.1,1.2-2,1.5c-0.8,0.3-1.7,0.2-2.5-0.3c-1.8-1-2.2-2.4-1.3-4.3c2.2-4.1,9.7-17,22.5-38.6C562,294.4,570,281,577,268.7
		c-5.9-3.7-9.8-7.6-11.6-11.4c-1.4-2.9-1.5-5.5-0.2-7.8c1.5-2.3,3.9-3.4,7.3-3.4c4,0,8.9,1.6,14.9,4.9c28-49.3,40.4-78.5,37.2-87.4
		c-0.2-0.8-0.2-1.7,0.2-2.4c0.4-0.8,1-1.4,1.8-1.7c0.4-0.1,0.8-0.2,1.3-0.2c0.5,0,0.9,0.1,1.3,0.3c0.4,0.2,0.7,0.5,1,0.8
		c0.3,0.4,0.5,0.7,0.6,1.1c3.3,9.1-5.6,33.1-26.5,72.2c9.4-12.6,18.4-24.1,27-34.6c19.6-23.7,36.7-37.2,51.3-40.4
		c6.8-1.5,12.6-0.6,17.6,2.5c4.5,2.8,7.9,7.3,10.2,13.6c2.1,6,2.7,13.3,2.1,21.7c-0.7,8.4-2.8,16.9-6.3,25.5
		c-0.1,0.5-0.2,0.8-0.4,1.1c-2.8,6.7-6.3,13-10.6,18.9c-4.3,6-9.3,11.5-15.1,16.7c-5.8,5.1-12.1,9.5-18.9,13
		c-12.3,6.3-25.2,9.5-38.6,9.6c1.2,1.3,5.9,6.4,14.1,15.2c5.9,6.3,10.5,11.1,13.6,14.4c3.1,3.3,7.7,7.9,13.6,13.6
		c5.9,5.7,10.8,10.1,14.5,13.1c3.7,3,8.6,6.5,14.4,10.5c5.9,4,11,6.9,15.4,8.4c4.4,1.6,9.5,3.1,15.4,4.4c5.9,1.4,11.4,1.7,16.5,0.8
		c5.1-0.8,10.6-2.4,16.5-4.8c5.9-2.4,11.7-5.7,17.5-10.1C774.8,346.2,775.7,346.1,776.6,346.2z M580.3,263.1l3.8-6.5
		c-4.8-2.7-8.7-4-11.6-4c-1.1,0-1.7,0.1-1.8,0.4c-0.1,0.2,0.1,0.8,0.5,1.6C572.5,257.5,575.6,260.4,580.3,263.1z M591.3,268.6
		c4.6,1.8,9.1,3.2,13.6,4.2c-3.3-2.9-6.2-5.4-8.9-7.6c-1.7-1.6-3.1-2.7-4.2-3.4v0.4l-3.6,5.3C589.5,267.9,590.5,268.3,591.3,268.6z
		 M616,274.6c14.7,1,28.8-2,42.2-8.9c9.3-4.8,17.6-11.2,24.8-19.2c7.3-8,12.8-16.7,16.7-26.1l0.4-0.9c3.3-8,5.2-15.8,5.9-23.4
		c0.7-7.6,0-14-1.9-19.2c-1.7-4.8-4.2-8.2-7.4-10.2c-3.4-2.2-7.6-2.8-12.7-1.8c-13.2,3-29.1,15.8-47.7,38.3
		c-13.9,16.9-27.4,34.7-40.6,53.3c1.3,1,2.8,2.2,4.5,3.6C605.1,263.9,610.3,268.7,616,274.6z"/>
</g>
</svg>
