<?xml version="1.0" encoding="utf-8"?>
<!-- Generator: Adobe Illustrator 21.0.2, SVG Export Plug-In . SVG
Version: 6.00 Build 0)  -->
<svg version="1.1" id="Layer_1" xmlns="http://www.w3.org/2000/svg"
xmlns:xlink="http://www.w3.org/1999/xlink" x="0px" y="0px"
         viewBox="0 0 841.9 595.3" style="enable-background:new 0 0
841.9 595.3;" xml:space="preserve">
<style type="text/css">
        .st0{fill:#3FBA8D;}
        .st1{fill:#FFFFFF;}
        .st2{font-family:'Code-Light';}
        .st3{font-size:30.9761px;}
        .st4{letter-spacing:3;}
</style> <g>
        <path class="st0"
d="M638.3,488h-91v-0.7h89.2V45.7h-88.3V45h90V488z"/>
</g>
<g>
        <path class="st0"
d="M180.1,45h91v0.7h-89.2v441.5h88.3v0.7h-90V45z"/>
</g>
<g>
<g>
                 <path class="st1"
d="M454.8,247.3h22.9c47.7-5.2,66.4-39.9,66.4-64.4c0-24.1-16.9-62.1-66.
4-64h-34.7v255.7h-11.5V110.1h46.2
c47.1,1.5,74.8,28.2,74.8,72.8c0,39.8-32.6,75.6-83.5,77.9l77.2,113.8h-1
6.6l-74.9-113.1V247.3z"/>
</g> </g>
<path class="st1"
d="M337.6,110h-9.7l-65.1,265.3h14.1l22.2-90.7c0.1-0.3,0.1-0.7,0.2-1h67
.3l22.2,91.7h13.9L337.6,110z
         M299.2,269.7l33.4-129.1l32.6,129.1H299.2z"/>
<text transform="matrix(1 0 0 1 244.9707 423.2178)"><tspan x="0" y="0"
class="st1 st2 st3">comp</tspan><tspan x="84.1" y="0" class="st1 st2
st3 st4">u</tspan><tspan x="105.7" y="0" class="st1 st2 st3">ter
science b.s.</tspan></text>
</svg>