<?xml version="1.0" encoding="utf-8"?>
<!-- Generator: Adobe Illustrator 21.0.2, SVG Export Plug-In . SVG
Version: 6.00 Build 0)  -->
<svg version="1.1" id="Layer_1" xmlns="http://www.w3.org/2000/svg"
xmlns:xlink="http://www.w3.org/1999/xlink" x="0px" y="0px"
         viewBox="0 0 841.9 595.3" style="enable-background:new 0 0
841.9 595.3;" xml:space="preserve">
<style type="text/css">
        .st0{fill:#FFFFFF;}
        .st1{font-family:'Code-Light';}
        .st2{font-size:91.5664px;}
        .st3{fill:#3FBA8D;}
        .st4{font-size:26.9513px;}
        .st5{letter-spacing:3;}
</style>
<text transform="matrix(1 0 0 1 363.6523 276.311)"><tspan x="0" y="0"
class="st0 st1 st2">AndRes </tspan><tspan x="0" y="75.2" class="st0
st1 st2">rodriguez</tspan></text>
<g>
        <path class="st3"
d="M320.6,142.9h63.1v0.5h-61.9v306.3h61.3v0.5h-62.5V142.9z"/>
</g>
<g>
<g>
                 <path class="st0"
d="M187.9,280.9h19.9c41.5-4.6,57.8-34.7,57.8-56c0-21-14.7-54-57.8-55.7
h-30.2v222.5h-10V161.5h40.2
c41,1.3,65.1,24.5,65.1,63.3c0,34.6-28.4,65.7-72.6,67.8l67.2,99H253l-65
.1-98.4V280.9z"/>
</g> </g>
<path class="st0"
d="M85.9,161.4h-8.5L20.8,392.2H33l19.3-78.9c0.1-0.3,0.1-0.6,0.2-0.9h58
.6l19.3,79.8h12.1L85.9,161.4z
         M52.5,300.3L81.6,188L110,300.3H52.5z"/>
<text transform="matrix(1 0 0 1 5.3579 433.9443)"><tspan x="0" y="0"
class="st0 st1 st4">comp</tspan><tspan x="73.1" y="0" class="st0 st1
st4 st5">u</tspan><tspan x="92" y="0" class="st0 st1 st4">ter science
b.s.</tspan></text>
</svg>