<svg xmlns="http://www.w3.org/2000/svg" height="74.34" width="239.73" version="1.1" viewBox="0 0 239.73 74.34">
  <g transform="translate(1.1161 1.1629)">
    <g fill="#ab9a5d">
      <path d="m35.16 10.78-10.83 40.61h5.46l-2.72 10.16h-14.43l13.49-50.77zM49.67 10.78l-13.63 50.77M49.67 10.78l-13.63 50.77M49.67 10.78l-13.63 50.77h-8.98l13.58-50.77zM71.26 10.78l-13.76 50.77h-7.87l1.55-23.08-6.22 23.08h-7.5l13.64-50.77h7.55l-1.11 22.86 6.18-22.86zM79.36 19.47l-9.09 33.4c1.29 0 2.2-0.38 2.7-1.14 0.5-0.77 1.22-2.84 2.14-6.23l5.38-19.73c0.63-2.3 0.98-3.77 1.05-4.42 0.08-0.65-0.02-1.12-0.3-1.43-0.27-0.3-0.9-0.45-1.89-0.45m-6.66-8.69h6.76c4.36 0 7.23 0.29 8.61 0.88 1.38 0.59 2.29 1.55 2.72 2.89 0.43 1.34 0.53 2.83 0.28 4.47-0.25 1.64-1.04 4.87-2.35 9.68l-4.87 17.78c-1.25 4.55-2.23 7.6-2.94 9.14-0.71 1.54-1.55 2.74-2.51 3.61-0.96 0.87-2.03 1.48-3.18 1.82-1.16 0.34-2.82 0.52-4.96 0.52h-11.32zM94.78 10.78h15.06l-2.8 10.16h-6.02l-2.65 9.63h5.63l-2.66 9.66h-5.62l-3.07 11.16h6.6l-2.8 10.16h-15.57zM131 10.78l-14.12 50.77h-7.87l1.71-23.08-6.38 23.08h-7.5l14-50.77h7.55l-1.27 22.86 6.34-22.86zM166.43 10.78l-18.33 50.77h-11.21c1.16-7.8 2.74-16.68 4.74-26.62-1.55 4.27-4.87 13.14-9.96 26.63h-11.14l10.1-50.77h8.77l-3.99 17.72-3.86 17.13c2.81-8.86 6.88-20.48 12.23-34.84h9.38c-0.29 1.48-1.53 7.06-3.72 16.75l-4.43 19.32c3.96-12.29 8.18-24.31 12.65-36.06zM173.91 23.83c0.67-2.36 1.01-3.87 1.02-4.53 0-0.66-0.27-0.98-0.82-0.98-0.47 0-0.91 0.27-1.31 0.8-0.4 0.54-0.97 2.11-1.71 4.72l-6.7 23.71c-0.84 2.95-1.27 4.77-1.3 5.46-0.03 0.69 0.25 1.04 0.85 1.04 0.61 0 1.11-0.39 1.51-1.19 0.39-0.79 1.02-2.68 1.86-5.68zm4.27 16.68c-1.45 5.1-2.56 8.71-3.33 10.84-0.77 2.12-1.83 4.06-3.19 5.82-1.36 1.76-2.91 3.11-4.64 4.05-1.73 0.94-3.57 1.41-5.52 1.41-1.85 0-3.38-0.45-4.6-1.33-1.22-0.89-2.03-2.22-2.42-4-0.39-1.77-0.38-3.71 0.04-5.8 0.42-2.09 1.36-5.75 2.84-10.98l2.45-8.68c1.44-5.1 2.54-8.71 3.3-10.84 0.76-2.12 1.82-4.06 3.19-5.82 1.36-1.76 2.91-3.11 4.65-4.05 1.74-0.94 3.59-1.41 5.55-1.41 1.86 0 3.41 0.45 4.63 1.33 1.23 0.89 2.04 2.22 2.43 4 0.39 1.78 0.38 3.71-0.04 5.8-0.43 2.09-1.38 5.75-2.87 10.98zM195.69 23.83c0.68-2.36 1.02-3.87 1.03-4.53 0.01-0.66-0.27-0.98-0.82-0.98-0.47 0-0.91 0.27-1.31 0.8-0.4 0.54-0.98 2.11-1.73 4.72l-6.77 23.71c-0.84 2.95-1.28 4.77-1.32 5.46-0.03 0.69 0.25 1.04 0.85 1.04 0.61 0 1.11-0.39 1.52-1.19 0.39-0.79 1.02-2.68 1.88-5.68zm4.23 16.68c-1.46 5.1-2.59 8.71-3.36 10.84-0.77 2.12-1.84 4.06-3.21 5.82-1.36 1.76-2.91 3.11-4.64 4.05-1.73 0.94-3.57 1.41-5.52 1.41-1.85 0-3.38-0.45-4.6-1.33-1.22-0.89-2.02-2.22-2.41-4-0.39-1.77-0.37-3.71 0.05-5.8 0.43-2.09 1.38-5.75 2.87-10.98l2.47-8.68c1.45-5.1 2.56-8.71 3.33-10.84 0.77-2.12 1.84-4.06 3.2-5.82 1.37-1.76 2.92-3.11 4.66-4.05 1.74-0.94 3.59-1.41 5.55-1.41 1.86 0 3.4 0.45 4.63 1.33 1.23 0.89 2.03 2.22 2.43 4 0.39 1.78 0.37 3.71-0.06 5.8-0.43 2.09-1.39 5.75-2.89 10.98zM216.15 19.47l-9.63 33.4c1.29 0 2.2-0.38 2.72-1.14 0.52-0.77 1.27-2.84 2.24-6.23l5.7-19.73c0.66-2.3 1.04-3.77 1.13-4.42 0.09-0.65 0-1.12-0.27-1.43-0.27-0.3-0.9-0.45-1.88-0.45m-6.53-8.69h6.76c4.36 0 7.23 0.29 8.59 0.88 1.37 0.59 2.26 1.55 2.68 2.89 0.41 1.34 0.48 2.83 0.2 4.47-0.28 1.64-1.11 4.87-2.5 9.68l-5.15 17.78c-1.32 4.55-2.35 7.6-3.09 9.14-0.74 1.54-1.59 2.74-2.57 3.61-0.97 0.87-2.05 1.48-3.21 1.82-1.16 0.34-2.82 0.52-4.97 0.52h-11.32z"/>
    </g>
    <g fill="#000">
      <path d="m35.16 10.78-10.83 40.61h5.46l-2.72 10.16h-14.43l13.49-50.77zM49.67 10.78l-13.63 50.77M49.67 10.78l-13.63 50.77M49.67 10.78l-13.63 50.77h-8.98l13.58-50.77zM71.26 10.78l-13.76 50.77h-7.87l1.55-23.08-6.22 23.08h-7.5l13.64-50.77h7.55l-1.11 22.86 6.18-22.86zM79.36 19.47l-9.09 33.4c1.29 0 2.2-0.38 2.7-1.14 0.5-0.77 1.22-2.84 2.14-6.23l5.38-19.73c0.63-2.3 0.98-3.77 1.05-4.42 0.08-0.65-0.02-1.12-0.3-1.43-0.27-0.3-0.9-0.45-1.89-0.45m-6.66-8.69h6.76c4.36 0 7.23 0.29 8.61 0.88 1.38 0.59 2.29 1.55 2.72 2.89 0.43 1.34 0.53 2.83 0.28 4.47-0.25 1.64-1.04 4.87-2.35 9.68l-4.87 17.78c-1.25 4.55-2.23 7.6-2.94 9.14-0.71 1.54-1.55 2.74-2.51 3.61-0.96 0.87-2.03 1.48-3.18 1.82-1.16 0.34-2.82 0.52-4.96 0.52h-11.32zM94.78 10.78h15.06l-2.8 10.16h-6.02l-2.65 9.63h5.63l-2.66 9.66h-5.62l-3.07 11.16h6.6l-2.8 10.16h-15.57zM131 10.78l-14.12 50.77h-7.87l1.71-23.08-6.38 23.08h-7.5l14-50.77h7.55l-1.27 22.86 6.34-22.86zM166.43 10.78l-18.33 50.77h-11.21c1.16-7.8 2.74-16.68 4.74-26.62-1.55 4.27-4.87 13.14-9.96 26.63h-11.14l10.1-50.77h8.77l-3.99 17.72-3.86 17.13c2.81-8.86 6.88-20.48 12.23-34.84h9.38c-0.29 1.48-1.53 7.06-3.72 16.75l-4.43 19.32c3.96-12.29 8.18-24.31 12.65-36.06zM173.91 23.83c0.67-2.36 1.01-3.87 1.02-4.53 0-0.66-0.27-0.98-0.82-0.98-0.47 0-0.91 0.27-1.31 0.8-0.4 0.54-0.97 2.11-1.71 4.72l-6.7 23.71c-0.84 2.95-1.27 4.77-1.3 5.46-0.03 0.69 0.25 1.04 0.85 1.04 0.61 0 1.11-0.39 1.51-1.19 0.39-0.79 1.02-2.68 1.86-5.68zm4.27 16.68c-1.45 5.1-2.56 8.71-3.33 10.84-0.77 2.12-1.83 4.06-3.19 5.82-1.36 1.76-2.91 3.11-4.64 4.05-1.73 0.94-3.57 1.41-5.52 1.41-1.85 0-3.38-0.45-4.6-1.33-1.22-0.89-2.03-2.22-2.42-4-0.39-1.77-0.38-3.71 0.04-5.8 0.42-2.09 1.36-5.75 2.84-10.98l2.45-8.68c1.44-5.1 2.54-8.71 3.3-10.84 0.76-2.12 1.82-4.06 3.19-5.82 1.36-1.76 2.91-3.11 4.65-4.05 1.74-0.94 3.59-1.41 5.55-1.41 1.86 0 3.41 0.45 4.63 1.33 1.23 0.89 2.04 2.22 2.43 4 0.39 1.78 0.38 3.71-0.04 5.8-0.43 2.09-1.38 5.75-2.87 10.98zM195.69 23.83c0.68-2.36 1.02-3.87 1.03-4.53 0.01-0.66-0.27-0.98-0.82-0.98-0.47 0-0.91 0.27-1.31 0.8-0.4 0.54-0.98 2.11-1.73 4.72l-6.77 23.71c-0.84 2.95-1.28 4.77-1.32 5.46-0.03 0.69 0.25 1.04 0.85 1.04 0.61 0 1.11-0.39 1.52-1.19 0.39-0.79 1.02-2.68 1.88-5.68zm4.23 16.68c-1.46 5.1-2.59 8.71-3.36 10.84-0.77 2.12-1.84 4.06-3.21 5.82-1.36 1.76-2.91 3.11-4.64 4.05-1.73 0.94-3.57 1.41-5.52 1.41-1.85 0-3.38-0.45-4.6-1.33-1.22-0.89-2.02-2.22-2.41-4-0.39-1.77-0.37-3.71 0.05-5.8 0.43-2.09 1.38-5.75 2.87-10.98l2.47-8.68c1.45-5.1 2.56-8.71 3.33-10.84 0.77-2.12 1.84-4.06 3.2-5.82 1.37-1.76 2.92-3.11 4.66-4.05 1.74-0.94 3.59-1.41 5.55-1.41 1.86 0 3.4 0.45 4.63 1.33 1.23 0.89 2.03 2.22 2.43 4 0.39 1.78 0.37 3.71-0.06 5.8-0.43 2.09-1.39 5.75-2.89 10.98zM216.15 19.47l-9.63 33.4c1.29 0 2.2-0.38 2.72-1.14 0.52-0.77 1.27-2.84 2.24-6.23l5.7-19.73c0.66-2.3 1.04-3.77 1.13-4.42 0.09-0.65 0-1.12-0.27-1.43-0.27-0.3-0.9-0.45-1.88-0.45m-6.53-8.69h6.76c4.36 0 7.23 0.29 8.59 0.88 1.37 0.59 2.26 1.55 2.68 2.89 0.41 1.34 0.48 2.83 0.2 4.47-0.28 1.64-1.11 4.87-2.5 9.68l-5.15 17.78c-1.32 4.55-2.35 7.6-3.09 9.14-0.74 1.54-1.59 2.74-2.57 3.61-0.97 0.87-2.05 1.48-3.21 1.82-1.16 0.34-2.82 0.52-4.97 0.52h-11.32z"/>
    </g>
    <g stroke="#ab9a5d" stroke-width="19.44">
      <path d="m35.16 10.78-10.83 40.61h5.46l-2.72 10.16h-14.43l13.49-50.77zM49.67 10.78l-13.63 50.77M49.67 10.78l-13.63 50.77M49.67 10.78l-13.63 50.77h-8.98l13.58-50.77zM71.26 10.78l-13.76 50.77h-7.87l1.55-23.08-6.22 23.08h-7.5l13.64-50.77h7.55l-1.11 22.86 6.18-22.86zM79.36 19.47l-9.09 33.4c1.29 0 2.2-0.38 2.7-1.14 0.5-0.77 1.22-2.84 2.14-6.23l5.38-19.73c0.63-2.3 0.98-3.77 1.05-4.42 0.08-0.65-0.02-1.12-0.3-1.43-0.27-0.3-0.9-0.45-1.89-0.45zm-6.66-8.69h6.76c4.36 0 7.23 0.29 8.61 0.88 1.38 0.59 2.29 1.55 2.72 2.89 0.43 1.34 0.53 2.83 0.28 4.47-0.25 1.64-1.04 4.87-2.35 9.68l-4.87 17.78c-1.25 4.55-2.23 7.6-2.94 9.14-0.71 1.54-1.55 2.74-2.51 3.61-0.96 0.87-2.03 1.48-3.18 1.82-1.16 0.34-2.82 0.52-4.96 0.52h-11.32zM94.78 10.78h15.06l-2.8 10.16h-6.02l-2.65 9.63h5.63l-2.66 9.66h-5.62l-3.07 11.16h6.6l-2.8 10.16h-15.57zM131 10.78l-14.12 50.77h-7.87l1.71-23.08-6.38 23.08h-7.5l14-50.77h7.55l-1.27 22.86 6.34-22.86zM166.43 10.78l-18.33 50.77h-11.21c1.16-7.8 2.74-16.68 4.74-26.62-1.55 4.27-4.87 13.14-9.96 26.63h-11.14l10.1-50.77h8.77l-3.99 17.72-3.86 17.13c2.81-8.86 6.88-20.48 12.23-34.84h9.38c-0.29 1.48-1.53 7.06-3.72 16.75l-4.43 19.32c3.96-12.29 8.18-24.31 12.65-36.06zM173.91 23.83c0.67-2.36 1.01-3.87 1.02-4.53 0-0.66-0.27-0.98-0.82-0.98-0.47 0-0.91 0.27-1.31 0.8-0.4 0.54-0.97 2.11-1.71 4.72l-6.7 23.71c-0.84 2.95-1.27 4.77-1.3 5.46-0.03 0.69 0.25 1.04 0.85 1.04 0.61 0 1.11-0.39 1.51-1.19 0.39-0.79 1.02-2.68 1.86-5.68zm4.27 16.68c-1.45 5.1-2.56 8.71-3.33 10.84-0.77 2.12-1.83 4.06-3.19 5.82-1.36 1.76-2.91 3.11-4.64 4.05-1.73 0.94-3.57 1.41-5.52 1.41-1.85 0-3.38-0.45-4.6-1.33-1.22-0.89-2.03-2.22-2.42-4-0.39-1.77-0.38-3.71 0.04-5.8 0.42-2.09 1.36-5.75 2.84-10.98l2.45-8.68c1.44-5.1 2.54-8.71 3.3-10.84 0.76-2.12 1.82-4.06 3.19-5.82 1.36-1.76 2.91-3.11 4.65-4.05 1.74-0.94 3.59-1.41 5.55-1.41 1.86 0 3.41 0.45 4.63 1.33 1.23 0.89 2.04 2.22 2.43 4 0.39 1.78 0.38 3.71-0.04 5.8-0.43 2.09-1.38 5.75-2.87 10.98zM195.69 23.83c0.68-2.36 1.02-3.87 1.03-4.53 0.01-0.66-0.27-0.98-0.82-0.98-0.47 0-0.91 0.27-1.31 0.8-0.4 0.54-0.98 2.11-1.73 4.72l-6.77 23.71c-0.84 2.95-1.28 4.77-1.32 5.46-0.03 0.69 0.25 1.04 0.85 1.04 0.61 0 1.11-0.39 1.52-1.19 0.39-0.79 1.02-2.68 1.88-5.68zm4.23 16.68c-1.46 5.1-2.59 8.71-3.36 10.84-0.77 2.12-1.84 4.06-3.21 5.82-1.36 1.76-2.91 3.11-4.64 4.05-1.73 0.94-3.57 1.41-5.52 1.41-1.85 0-3.38-0.45-4.6-1.33-1.22-0.89-2.02-2.22-2.41-4-0.39-1.77-0.37-3.71 0.05-5.8 0.43-2.09 1.38-5.75 2.87-10.98l2.47-8.68c1.45-5.1 2.56-8.71 3.33-10.84 0.77-2.12 1.84-4.06 3.2-5.82 1.37-1.76 2.92-3.11 4.66-4.05 1.74-0.94 3.59-1.41 5.55-1.41 1.86 0 3.4 0.45 4.63 1.33 1.23 0.89 2.03 2.22 2.43 4 0.39 1.78 0.37 3.71-0.06 5.8-0.43 2.09-1.39 5.75-2.89 10.98zM216.15 19.47l-9.63 33.4c1.29 0 2.2-0.38 2.72-1.14 0.52-0.77 1.27-2.84 2.24-6.23l5.7-19.73c0.66-2.3 1.04-3.77 1.13-4.42 0.09-0.65 0-1.12-0.27-1.43-0.27-0.3-0.9-0.45-1.88-0.45zm-6.53-8.69h6.76c4.36 0 7.23 0.29 8.59 0.88 1.37 0.59 2.26 1.55 2.68 2.89 0.41 1.34 0.48 2.83 0.2 4.47-0.28 1.64-1.11 4.87-2.5 9.68l-5.15 17.78c-1.32 4.55-2.35 7.6-3.09 9.14-0.74 1.54-1.59 2.74-2.57 3.61-0.97 0.87-2.05 1.48-3.21 1.82-1.16 0.34-2.82 0.52-4.97 0.52h-11.32z"/>
    </g>
    <g stroke="#000" stroke-width="12.96">
      <path d="m35.16 10.78-10.83 40.61h5.46l-2.72 10.16h-14.43l13.49-50.77zM49.67 10.78l-13.63 50.77M49.67 10.78l-13.63 50.77M49.67 10.78l-13.63 50.77h-8.98l13.58-50.77zM71.26 10.78l-13.76 50.77h-7.87l1.55-23.08-6.22 23.08h-7.5l13.64-50.77h7.55l-1.11 22.86 6.18-22.86zM79.36 19.47l-9.09 33.4c1.29 0 2.2-0.38 2.7-1.14 0.5-0.77 1.22-2.84 2.14-6.23l5.38-19.73c0.63-2.3 0.98-3.77 1.05-4.42 0.08-0.65-0.02-1.12-0.3-1.43-0.27-0.3-0.9-0.45-1.89-0.45zm-6.66-8.69h6.76c4.36 0 7.23 0.29 8.61 0.88 1.38 0.59 2.29 1.55 2.72 2.89 0.43 1.34 0.53 2.83 0.28 4.47-0.25 1.64-1.04 4.87-2.35 9.68l-4.87 17.78c-1.25 4.55-2.23 7.6-2.94 9.14-0.71 1.54-1.55 2.74-2.51 3.61-0.96 0.87-2.03 1.48-3.18 1.82-1.16 0.34-2.82 0.52-4.96 0.52h-11.32zM94.78 10.78h15.06l-2.8 10.16h-6.02l-2.65 9.63h5.63l-2.66 9.66h-5.62l-3.07 11.16h6.6l-2.8 10.16h-15.57zM131 10.78l-14.12 50.77h-7.87l1.71-23.08-6.38 23.08h-7.5l14-50.77h7.55l-1.27 22.86 6.34-22.86zM166.43 10.78l-18.33 50.77h-11.21c1.16-7.8 2.74-16.68 4.74-26.62-1.55 4.27-4.87 13.14-9.96 26.63h-11.14l10.1-50.77h8.77l-3.99 17.72-3.86 17.13c2.81-8.86 6.88-20.48 12.23-34.84h9.38c-0.29 1.48-1.53 7.06-3.72 16.75l-4.43 19.32c3.96-12.29 8.18-24.31 12.65-36.06zM173.91 23.83c0.67-2.36 1.01-3.87 1.02-4.53 0-0.66-0.27-0.98-0.82-0.98-0.47 0-0.91 0.27-1.31 0.8-0.4 0.54-0.97 2.11-1.71 4.72l-6.7 23.71c-0.84 2.95-1.27 4.77-1.3 5.46-0.03 0.69 0.25 1.04 0.85 1.04 0.61 0 1.11-0.39 1.51-1.19 0.39-0.79 1.02-2.68 1.86-5.68zm4.27 16.68c-1.45 5.1-2.56 8.71-3.33 10.84-0.77 2.12-1.83 4.06-3.19 5.82-1.36 1.76-2.91 3.11-4.64 4.05-1.73 0.94-3.57 1.41-5.52 1.41-1.85 0-3.38-0.45-4.6-1.33-1.22-0.89-2.03-2.22-2.42-4-0.39-1.77-0.38-3.71 0.04-5.8 0.42-2.09 1.36-5.75 2.84-10.98l2.45-8.68c1.44-5.1 2.54-8.71 3.3-10.84 0.76-2.12 1.82-4.06 3.19-5.82 1.36-1.76 2.91-3.11 4.65-4.05 1.74-0.94 3.59-1.41 5.55-1.41 1.86 0 3.41 0.45 4.63 1.33 1.23 0.89 2.04 2.22 2.43 4 0.39 1.78 0.38 3.71-0.04 5.8-0.43 2.09-1.38 5.75-2.87 10.98zM195.69 23.83c0.68-2.36 1.02-3.87 1.03-4.53 0.01-0.66-0.27-0.98-0.82-0.98-0.47 0-0.91 0.27-1.31 0.8-0.4 0.54-0.98 2.11-1.73 4.72l-6.77 23.71c-0.84 2.95-1.28 4.77-1.32 5.46-0.03 0.69 0.25 1.04 0.85 1.04 0.61 0 1.11-0.39 1.52-1.19 0.39-0.79 1.02-2.68 1.88-5.68zm4.23 16.68c-1.46 5.1-2.59 8.71-3.36 10.84-0.77 2.12-1.84 4.06-3.21 5.82-1.36 1.76-2.91 3.11-4.64 4.05-1.73 0.94-3.57 1.41-5.52 1.41-1.85 0-3.38-0.45-4.6-1.33-1.22-0.89-2.02-2.22-2.41-4-0.39-1.77-0.37-3.71 0.05-5.8 0.43-2.09 1.38-5.75 2.87-10.98l2.47-8.68c1.45-5.1 2.56-8.71 3.33-10.84 0.77-2.12 1.84-4.06 3.2-5.82 1.37-1.76 2.92-3.11 4.66-4.05 1.74-0.94 3.59-1.41 5.55-1.41 1.86 0 3.4 0.45 4.63 1.33 1.23 0.89 2.03 2.22 2.43 4 0.39 1.78 0.37 3.71-0.06 5.8-0.43 2.09-1.39 5.75-2.89 10.98zM216.15 19.47l-9.63 33.4c1.29 0 2.2-0.38 2.72-1.14 0.52-0.77 1.27-2.84 2.24-6.23l5.7-19.73c0.66-2.3 1.04-3.77 1.13-4.42 0.09-0.65 0-1.12-0.27-1.43-0.27-0.3-0.9-0.45-1.88-0.45zm-6.53-8.69h6.76c4.36 0 7.23 0.29 8.59 0.88 1.37 0.59 2.26 1.55 2.68 2.89 0.41 1.34 0.48 2.83 0.2 4.47-0.28 1.64-1.11 4.87-2.5 9.68l-5.15 17.78c-1.32 4.55-2.35 7.6-3.09 9.14-0.74 1.54-1.59 2.74-2.57 3.61-0.97 0.87-2.05 1.48-3.21 1.82-1.16 0.34-2.82 0.52-4.97 0.52h-11.32z"/>
    </g>
    <path d="m79.36 19.47-9.09 33.4c1.29 0 2.2-0.38 2.7-1.14 0.5-0.76 1.22-2.84 2.14-6.22l5.38-19.73c0.63-2.3 0.98-3.77 1.05-4.42 0.08-0.65-0.02-1.12-0.3-1.43-0.27-0.3-0.9-0.46-1.89-0.46zm-6.66-8.68h6.76c4.36 0 7.23 0.29 8.61 0.88 1.38 0.59 2.29 1.55 2.72 2.88 0.43 1.34 0.53 2.83 0.28 4.47-0.25 1.64-1.04 4.87-2.35 9.68l-4.87 17.78c-1.25 4.55-2.23 7.61-2.94 9.14-0.71 1.54-1.55 2.74-2.51 3.61-0.96 0.87-2.02 1.47-3.18 1.82-1.16 0.34-2.82 0.52-4.96 0.52h-11.32zM216.15 19.47l-9.63 33.4M216.15 19.47l-9.63 33.4M216.15 19.47l-9.63 33.4c1.3 0 2.2-0.38 2.72-1.14 0.52-0.76 1.27-2.84 2.25-6.22l5.7-19.73c0.66-2.3 1.04-3.77 1.13-4.42 0.09-0.65 0-1.12-0.27-1.43-0.28-0.3-0.9-0.46-1.89-0.46zm-6.52-8.68h6.76c4.36 0 7.22 0.29 8.59 0.88 1.37 0.59 2.26 1.55 2.68 2.88 0.41 1.34 0.48 2.83 0.2 4.47-0.28 1.64-1.11 4.87-2.5 9.68l-5.15 17.78c-1.32 4.55-2.35 7.61-3.09 9.14-0.74 1.54-1.59 2.74-2.57 3.61-0.97 0.87-2.04 1.47-3.21 1.82-1.16 0.34-2.82 0.52-4.97 0.52h-11.32z" stroke="#000" stroke-width="1.62"/>
    <path d="m175.38 8.6c-1.96 0-3.81 0.47-5.55 1.41-1.74 0.94-3.29 2.29-4.65 4.05-1.36 1.75-2.42 3.7-3.19 5.82-0.76 2.12-1.86 5.73-3.3 10.84l-2.45 8.68c-1.48 5.23-2.42 8.89-2.84 10.98-0.42 2.09-0.43 4.02-0.04 5.8 0.39 1.78 1.2 3.11 2.42 4 1.22 0.89 2.75 1.33 4.6 1.33 1.95 0 3.79-0.47 5.52-1.41 1.73-0.94 3.28-2.29 4.64-4.05 1.36-1.75 2.42-3.7 3.19-5.82 0.77-2.12 1.88-5.73 3.33-10.84l2.47-8.68c1.49-5.23 2.44-8.89 2.87-10.98 0.42-2.09 0.44-4.02 0.04-5.8-0.39-1.77-1.21-3.11-2.43-4-1.23-0.89-2.77-1.33-4.63-1.33zm21.81 0c-1.96 0-3.81 0.47-5.55 1.41-1.74 0.94-3.29 2.29-4.66 4.05-1.36 1.75-2.43 3.7-3.2 5.82-0.77 2.12-1.88 5.73-3.33 10.84l-2.47 8.68c-1.49 5.23-2.44 8.89-2.87 10.98-0.42 2.09-0.44 4.02-0.05 5.8 0.39 1.78 1.19 3.11 2.41 4 1.22 0.89 2.75 1.33 4.6 1.33 1.95 0 3.79-0.47 5.52-1.41 1.73-0.94 3.28-2.29 4.64-4.05 1.37-1.75 2.44-3.7 3.21-5.82 0.77-2.12 1.89-5.73 3.36-10.84l2.5-8.68c1.5-5.23 2.46-8.89 2.89-10.98 0.43-2.09 0.45-4.02 0.06-5.8-0.39-1.77-1.2-3.11-2.43-4-1.22-0.89-2.77-1.33-4.63-1.33zm-172.18 1.07-13.49 50.77h14.43 0.01 8.96l13.63-50.77h-9.03l-10.86 40.61h-5.45l10.83-40.61h-9.03zm24.97 0-13.64 50.77h7.5l6.22-23.08-1.55 23.08h7.87l13.76-50.77h-7.55l-6.18 22.86 1.11-22.86h-7.55zm21.59 0-13.77 50.77h11.32c2.14 0 3.8-0.17 4.96-0.52 1.16-0.35 2.22-0.95 3.18-1.82 0.96-0.87 1.8-2.07 2.51-3.61 0.71-1.54 1.69-4.59 2.94-9.14l4.87-17.78c1.31-4.81 2.1-8.03 2.35-9.68 0.25-1.64 0.15-3.13-0.28-4.47-0.43-1.34-1.34-2.3-2.72-2.88-1.37-0.59-4.25-0.88-8.6-0.88h-6.76zm22.09 0-13.9 50.77h15.57l2.8-10.16h-6.6l3.07-11.16h5.62l2.66-9.66h-5.63l2.65-9.62h6.02l2.8-10.16h-15.06zm16.06 0-14 50.77h7.5l6.38-23.08-1.71 23.08h7.87l12.81-46.04-9.16 46.04h11.15c5.09-13.48 8.41-22.36 9.96-26.62-2 9.95-3.58 18.82-4.74 26.62h11.21l18.33-50.77h-8.77c-4.47 11.75-8.69 23.77-12.66 36.06l4.43-19.32c2.18-9.68 3.42-15.26 3.72-16.75h-9.38c-5.34 14.36-9.41 25.98-12.22 34.84l3.86-17.12 3.99-17.72h-8.4-7.55l-6.34 22.86 1.28-22.86h-7.55zm98.79 0-14.59 50.77h11.32c2.14 0 3.8-0.17 4.97-0.52 1.17-0.35 2.24-0.95 3.21-1.82 0.98-0.87 1.84-2.07 2.58-3.61 0.73-1.54 1.77-4.59 3.09-9.14l5.15-17.78c1.39-4.81 2.23-8.03 2.5-9.68 0.28-1.64 0.21-3.13-0.2-4.47-0.41-1.34-1.31-2.3-2.68-2.88-1.37-0.59-4.23-0.88-8.59-0.88h-6.76zm-35.52 7.52c0.55 0 0.83 0.33 0.82 0.99-0.01 0.66-0.35 2.17-1.02 4.53l-6.61 23.33c-0.85 2.99-1.47 4.88-1.87 5.68-0.4 0.79-0.9 1.19-1.51 1.19-0.6 0-0.88-0.34-0.85-1.03 0.03-0.69 0.46-2.51 1.3-5.46l6.71-23.71c0.74-2.61 1.31-4.19 1.71-4.72 0.4-0.53 0.84-0.8 1.31-0.8zm21.78 0c0.56 0 0.83 0.33 0.83 0.99-0.01 0.66-0.36 2.17-1.03 4.53l-6.67 23.33c-0.86 2.99-1.49 4.88-1.88 5.68-0.4 0.79-0.9 1.19-1.52 1.19-0.6 0-0.88-0.34-0.85-1.03 0.04-0.69 0.47-2.51 1.32-5.46l6.77-23.71c0.75-2.61 1.32-4.19 1.73-4.72 0.4-0.53 0.84-0.8 1.31-0.8zm-116.53 1.16c0.99 0 1.62 0.15 1.89 0.46 0.28 0.3 0.38 0.78 0.3 1.43-0.07 0.65-0.43 2.12-1.06 4.42l-5.37 19.73c-0.93 3.39-1.64 5.46-2.14 6.22-0.51 0.77-1.41 1.15-2.7 1.15l9.09-33.4zm136.79 0c0.99 0 1.61 0.15 1.88 0.46 0.27 0.3 0.36 0.78 0.27 1.43-0.09 0.65-0.46 2.12-1.12 4.42l-5.7 19.73c-0.98 3.39-1.73 5.46-2.25 6.22-0.52 0.77-1.42 1.15-2.72 1.15l9.63-33.4z" stroke="#000" stroke-width="1.62" fill="#fff"/></g></svg>